<?xml version="1.0" encoding="UTF-8"?>
<svg id="Layer_1" data-name="Layer 1" xmlns="http://www.w3.org/2000/svg" viewBox="0 0 49 49">
  <defs>
    <style>
      .cls-1 {
        fill: #e6eb9b;
      }

      .cls-2 {
        fill: #ec8280;
      }

      .cls-3 {
        fill: #9695c9;
      }

      .cls-4 {
        fill: #d19dc8;
      }

      .cls-5 {
        fill: none;
        stroke: #917a56;
        stroke-miterlimit: 10;
        stroke-width: 18px;
      }
    </style>
  </defs>
  <circle class="cls-5" cx="24.5" cy="24.5" r="15.5"/>
  <path class="cls-4" d="M31.4,40.61c-2.6,1.59-5.67,2.05-8.67,2.15-.38,.01-.77,.02-1.15,.02-.68,0,.29,.07-.17,0-.54-.09-1.08-.26-1.59-.44-1.15-.4-2.26-.95-3.31-1.58s-1.52-1.4-2.26-2.47c-.89-1.29-1.92-2.3-3.14-3.27-.81-.64-2.02-1.39-2.39-2.41-.46-1.27,.11-2.94-.02-4.28-.1-1.02-.37-1.88-.79-2.81-.19-.42-.52-.88-.55-1.35-.03-.54,.4-1.18,.62-1.64,.44-.93,.85-1.86,1.09-2.86,.33-1.37,.37-2.88,1.04-4.14,.77-1.45,2.06-2.71,3.09-3.97,.43-.53,1.1-1.77,1.72-2.06-.37,.17,.88,0,.54,.04,.33-.03,.68-.08,1.01-.14,1.6-.32,2.98-1.26,4.4-2.03,1.22-.66,1.77-.52,3.13-.27,1.52,.28,3.45-.23,4.87,.38s2.63,2.12,3.88,3.07c1.49,1.13,3.15,1.97,4.92,2.57,1.4,.47-.15-.19,.03-.34-.09,.07,.3,1.33,.34,1.48,.23,.82,.56,1.63,.93,2.4,.82,1.69,2.06,3.2,3.53,4.37l-.73-1.77c-.26,2.46-.51,4.91-.77,7.37-.11,1.02-.21,2.02-.53,3s-.84,1.89-1.13,2.89c-.26,.9-.12,1.91-.61,2.71s-1.18,1.49-1.8,2.14c-1.39,1.47-3.05,2.27-4.91,3-1.26,.49-2.13,1.68-1.75,3.08,.33,1.2,1.81,2.24,3.08,1.75,2.37-.93,4.64-1.9,6.52-3.68s3.8-3.94,4.1-6.54c.11-.94,.41-1.76,.78-2.63,.6-1.41,.91-2.78,1.09-4.3,.34-2.74,.71-5.53,.88-8.29,.1-1.67-.79-2.22-1.83-3.29-.68-.7-1.25-1.54-1.65-2.44s-.48-1.96-.83-2.92c-.5-1.39-1.5-2.16-2.86-2.63-2.1-.72-3.72-1.77-5.37-3.24-1.95-1.74-3.93-2.93-6.61-2.96-1.19-.02-2.2,0-3.36-.25-1.29-.27-2.57-.3-3.83,.14-1.76,.61-3.36,2.16-5.21,2.43-1.41,.2-2.49,.26-3.6,1.26-.93,.84-1.68,1.95-2.47,2.92-1.61,1.97-3.41,3.85-4.13,6.35-.31,1.06-.42,2.17-.68,3.24-.29,1.19-.9,2.2-1.35,3.33s-.66,2.33-.43,3.55,1.1,2.19,1.25,3.37c.13,1-.12,2.04-.12,3.04,0,1.33,.28,2.63,.95,3.79,1.06,1.82,2.85,2.86,4.36,4.25,.77,.71,1.25,1.56,1.86,2.41,.77,1.09,1.62,1.96,2.74,2.7,1.72,1.14,3.75,2.06,5.73,2.62,2.26,.64,4.7,.37,7,.06,2.71-.36,5.35-1.1,7.69-2.54,2.74-1.68,.23-6-2.52-4.32h0Z"/>
  <path class="cls-4" d="M20.09,32.35c-1.38-.73-2.5-1.86-3.04-3.31-.7-1.91-.51-4.03-.37-6.02,.05-.73,.06-1.49,.51-2.1,.53-.7,1.27-1.34,1.97-1.86,1.6-1.18,3.61-1.69,5.51-2.16,.72-.18,1.52-.36,2.28-.27,.94,.11,1.75,.73,2.52,1.23,1.45,.94,2.57,1.84,2.85,3.63,.15,.92,.1,1.9,.1,2.84,0,1.03,.01,2.07-.27,3.06-.49,1.75-1.94,2-3.32,3.01-.67,.49-1.43,1.32-2.09,1.63-.79,.37-1.89,.17-2.75,.37-.31,.07-.62,.18-.93,.26-.14,.04-.28,.08-.41,.11-.05,.01-.76,.13-.25,.07-.93,.11-1.45-.04-2.32-.5-1.19-.63-2.72-.3-3.42,.9-.66,1.13-.3,2.78,.9,3.42,2.33,1.24,4.61,1.46,7.13,.74,.23-.07,1.25-.22,.47-.18,.53-.03,1.05-.05,1.57-.11,1.66-.2,2.88-.93,4.16-1.99,.81-.67,1.68-1.09,2.58-1.63,1.29-.79,2.31-1.9,2.94-3.27,1.17-2.55,1.18-5.63,.94-8.38-.12-1.37-.37-2.69-.96-3.94-.67-1.42-1.79-2.48-3.02-3.41-2.23-1.67-4.68-3.06-7.55-2.82-2.71,.22-5.75,1.12-8.14,2.42s-4.89,3.53-5.64,6.19c-.4,1.44-.41,3.1-.47,4.58-.06,1.66,.03,3.39,.49,4.99,.82,2.91,2.83,5.4,5.5,6.82,1.19,.63,2.72,.3,3.42-.9,.66-1.13,.3-2.79-.9-3.42h0Z"/>
  <path class="cls-4" d="M21.49,38.25c-2.1-.92-4.12-2.08-5.86-3.56-.85-.73-1.66-1.51-2.41-2.35-.34-.38-.68-.77-.99-1.18-.2-.26-.39-.53-.58-.8-.08-.1-.15-.21-.21-.33-.14-.23-.13-.22,.02,.04l-.34,1.26,.16-.31-3.93,.51c1.31,1.61,2.69,3.15,4.14,4.62,1.73,1.75,4.9-.02,4.18-2.43-.92-3.06-1.94-6.19-3.68-8.9-.19-.3-.39-.59-.6-.88-1.07-1.46-.09,.08-.38,.19,.25-.1,.85-1.81,1-2.07,.73-1.3,1.61-2.44,2.64-3.52l-3.93-3.03c-.76,1.54-.92,3.14-1.16,4.82s-.51,3.5-.76,5.25l4.91,.66c-.29-2.45-.21-4.89,0-7.34,.09-1.08-.17-3.98,1.13-4.44,.61-.22,1.1-.28,1.69-.6,.56-.31,1.09-.66,1.63-.99,.95-.58,1.91-1.16,2.86-1.74,.73-.44,1.59-1.2,2.45-1.27s2.04,.33,2.91,.54c2.11,.5,3.8,1.44,5.53,2.73,1.56,1.17,3.17,2.4,4.21,4.07,.51,.82,.94,1.69,1.32,2.58,.36,.83,.91,1.82,1.03,2.72,.13,.96-.29,2.07-.47,2.99-.25,1.29-.5,2.58-.75,3.87l4.18-1.1c-.23-.22-.47-.44-.7-.66-1.23-1.15-3.89-.86-4.18,1.1-.45,3.09-.97,7.41-4.1,9.03-1.5,.78-3.41,.82-5.06,.96-1,.09-2.22,0-3.19,.24-.46-.06-.51-.02-.17,.12,.21,.06,.34,.2,.39,.42-.22,.1,.01-1.13-.2-.41l-.64,1.1,.19-.16-1.1,.64c1.61-.57,3.35-.92,5.01-1.31,.84-.19,1.68-.38,2.52-.55,.46-.09,.92-.18,1.38-.27,.7-.15,.51,.08-.02-.26l-.9-.9,.11,.21-.34-1.26-.02,.27,.34-1.26c-.21,.42,.17,.03-.38,.31l3.42,3.42c1.2-2.63,4.12-3.97,5.5-6.53,1.87-3.48,1.05-7.79,.83-11.55-.19-3.2-5.19-3.22-5,0,.11,1.85,.25,3.7,.31,5.55,.05,1.43,.04,2.85-.82,4.06-1.55,2.17-3.99,3.42-5.14,5.95-1.03,2.26,1.08,4.61,3.42,3.42s3.82-4.58,1-6.13c-1.16-.64-2.42-.35-3.64-.12s-2.45,.49-3.67,.77-2.43,.58-3.64,.9-2.59,.59-3.28,1.77c-1.05,1.8-.06,4.83,1.56,5.97,1.98,1.4,4.86,.72,7.11,.5,2.38-.24,4.88-.46,6.97-1.74,4.13-2.54,5.42-7.34,6.08-11.83l-4.18,1.1c.23,.22,.47,.44,.7,.66,1.28,1.2,3.8,.83,4.18-1.1,.4-2.07,.85-4.15,1.21-6.23s-.12-3.85-.95-5.84c-.72-1.74-1.47-3.44-2.61-4.96-1.23-1.64-2.76-2.88-4.37-4.13s-3.07-2.28-4.86-3.04-3.7-1.16-5.61-1.45c-2.26-.35-3.89,.26-5.8,1.41s-3.68,2.23-5.52,3.35l1.26-.34c-3.66,.35-5.45,2.96-5.85,6.41s-.7,6.94-.29,10.39c.14,1.24,.84,2.3,2.17,2.46,1.1,.13,2.56-.55,2.74-1.79,.23-1.59,.46-3.18,.69-4.77,.18-1.27,.15-2.93,.73-4.1,1.2-2.44-1.86-5.18-3.93-3.03-1.31,1.36-2.48,2.88-3.42,4.53s-2.13,3.66-1.49,5.51c.3,.87,.98,1.52,1.47,2.29,.54,.84,1.01,1.72,1.41,2.63,.73,1.63,1.25,3.36,1.76,5.07l4.18-2.43c-1.46-1.47-2.84-3.01-4.14-4.62-.99-1.22-3.24-.82-3.93,.51-1.68,3.27,1.9,6.69,4.11,8.79s4.99,4,7.91,5.27c1.24,.54,2.68,.36,3.42-.9,.62-1.06,.35-2.88-.9-3.42h0Z"/>
  <path class="cls-4" d="M39.15,17.63c-1.63-2.06-3.46-3.99-5.52-5.62-2.28-1.81-4.86-2.58-7.77-2.42-2.64,.14-5.36,.6-7.92,1.23s-4.78,1.77-5.77,4.35c-.48,1.26,.54,2.74,1.75,3.08,1.41,.39,2.59-.48,3.08-1.75-.09,.23,.28-.18,.19-.11,.26-.2,.56-.3,.86-.41,.85-.31,1.77-.48,2.65-.65,1.94-.39,3.95-.75,5.93-.75,1.86,0,3.17,.67,4.54,1.88,1.62,1.44,3.1,3.02,4.44,4.72,.84,1.06,2.66,.88,3.54,0,1.05-1.05,.84-2.47,0-3.54h0Z"/>
  <path class="cls-1" d="M6.35,20.17l-.39,1.47c-.07,.25,.08,.55,.35,.62s.54-.08,.62-.35l.39-1.47c.07-.25-.08-.55-.35-.62s-.54,.08-.62,.35h0Z"/>
  <path class="cls-1" d="M8.64,25.24c.03,.21,.06,.41,.14,.61s.17,.38,.29,.55c.03,.06,.07,.11,.13,.14,.05,.04,.1,.07,.17,.09,.12,.03,.28,.02,.39-.05s.2-.17,.23-.3,.03-.28-.05-.39c-.09-.12-.17-.26-.23-.4l.05,.12c-.07-.16-.11-.32-.13-.49l.02,.13v-.02c0-.07-.01-.13-.05-.19-.02-.06-.05-.12-.1-.16-.09-.09-.23-.15-.35-.15s-.26,.05-.35,.15c-.08,.09-.16,.23-.15,.35h0Z"/>
  <path class="cls-1" d="M16.81,37.31l1.25,.81c.22,.14,.56,.05,.68-.18,.13-.25,.06-.53-.18-.68l-1.25-.81c-.22-.14-.56-.05-.68,.18-.13,.25-.06,.53,.18,.68h0Z"/>
  <path class="cls-1" d="M10.04,34.75l.58,.76c.03,.06,.07,.11,.13,.14,.05,.04,.1,.07,.17,.09,.07,.02,.13,.02,.2,0,.07,0,.13-.02,.19-.06,.11-.07,.2-.17,.23-.3l.02-.13c0-.09-.02-.17-.07-.25l-.58-.76c-.03-.06-.07-.11-.13-.14-.05-.04-.1-.07-.17-.09-.07-.02-.13-.02-.2,0-.07,0-.13,.02-.19,.06-.11,.07-.2,.17-.23,.3l-.02,.13c0,.09,.02,.17,.07,.25h0Z"/>
  <path class="cls-1" d="M16.96,11.89l.6-.75s.08-.1,.1-.16c.03-.06,.05-.12,.04-.19,0-.12-.05-.27-.15-.35s-.22-.15-.35-.15c-.12,0-.27,.05-.35,.15l-.6,.75s-.08,.1-.1,.16c-.03,.06-.05,.12-.04,.19,0,.12,.05,.27,.15,.35s.22,.15,.35,.15c.12,0,.27-.05,.35-.15h0Z"/>
  <path class="cls-1" d="M14.71,8.78l.66-.82s.08-.1,.1-.16c.03-.06,.05-.12,.04-.19,0-.12-.05-.27-.15-.35s-.22-.15-.35-.15c-.12,0-.27,.05-.35,.15l-.66,.82s-.08,.1-.1,.16c-.03,.06-.05,.12-.04,.19,0,.12,.05,.27,.15,.35s.22,.15,.35,.15c.12,0,.27-.05,.35-.15h0Z"/>
  <path class="cls-1" d="M12.89,19.31c0-.22,.01-.45,.04-.67l-.02,.13c.04-.28,.1-.55,.19-.81,.08-.25-.09-.56-.35-.62-.27-.06-.53,.08-.62,.35-.17,.52-.25,1.07-.24,1.61,0,.26,.23,.51,.5,.5s.5-.22,.5-.5h0Z"/>
  <path class="cls-1" d="M9.12,13.87c.03-.08,.06-.16,.09-.24l-.05,.12c.08-.18,.17-.36,.29-.52,.04-.06,.06-.12,.06-.19,.01-.07,.01-.13,0-.2-.03-.12-.12-.24-.23-.3-.12-.06-.26-.09-.39-.05l-.12,.05c-.08,.04-.13,.1-.18,.18-.19,.27-.33,.57-.43,.88-.04,.12-.01,.28,.05,.39s.18,.2,.3,.23c.13,.03,.27,.02,.39-.05s.19-.17,.23-.3h0Z"/>
  <path class="cls-1" d="M28.42,13.04h1.13c.13,0,.26-.06,.35-.15s.15-.23,.15-.35c-.01-.27-.22-.5-.5-.5h-1.13c-.13,0-.26,.06-.35,.15s-.15,.23-.15,.35c.01,.27,.22,.5,.5,.5h0Z"/>
  <path class="cls-1" d="M21.93,16.78s.06-.05,.1-.08l-.1,.08c.17-.13,.35-.24,.55-.32l-.12,.05c.13-.05,.26-.1,.4-.13,.12-.03,.24-.13,.3-.23s.09-.27,.05-.39c-.09-.27-.34-.41-.62-.35-.47,.11-.9,.34-1.27,.65-.09,.08-.15,.24-.15,.35s.05,.27,.15,.35,.22,.15,.35,.15l.13-.02c.08-.02,.16-.07,.22-.13h0Z"/>
  <path class="cls-1" d="M24.72,7.17l-1.55-1c-.22-.14-.56-.05-.68,.18-.13,.25-.06,.53,.18,.68l1.55,1c.22,.14,.56,.05,.68-.18,.13-.25,.06-.53-.18-.68h0Z"/>
  <path class="cls-1" d="M14.94,14.8l-.7-.08c-.07,0-.13,.01-.19,.04-.06,.02-.12,.05-.16,.1-.05,.05-.08,.1-.1,.16-.03,.06-.05,.12-.04,.19,0,.13,.05,.26,.15,.35l.1,.08c.08,.05,.16,.07,.25,.07l.7,.08c.07,0,.13-.01,.19-.04,.06-.02,.12-.05,.16-.1,.05-.05,.08-.1,.1-.16,.03-.06,.05-.12,.04-.19,0-.13-.05-.26-.15-.35l-.1-.08c-.08-.05-.16-.07-.25-.07h0Z"/>
  <path class="cls-1" d="M35.53,16.41s.02-.06,.03-.09l-.05,.12c.03-.07,.07-.14,.12-.2l-.08,.1c.05-.06,.1-.11,.16-.16l-.1,.08s.04-.03,.06-.04c.06-.03,.11-.07,.14-.13,.04-.05,.07-.1,.09-.17,.02-.07,.02-.13,0-.2,0-.07-.02-.13-.06-.19l-.08-.1c-.06-.06-.14-.1-.22-.13l-.13-.02c-.09,0-.17,.02-.25,.07-.08,.05-.15,.11-.22,.17s-.12,.14-.18,.22c-.03,.04-.06,.09-.08,.13-.03,.06-.06,.12-.08,.19-.01,.03-.02,.05-.03,.08-.02,.07-.02,.13,0,.2,0,.07,.02,.13,.06,.19,.03,.06,.07,.11,.13,.14,.05,.04,.1,.07,.17,.09l.13,.02c.09,0,.17-.02,.25-.07l.1-.08c.06-.06,.1-.14,.13-.22h0Z"/>
  <path class="cls-1" d="M35.13,8.94v-.78c0-.13-.06-.26-.15-.35s-.23-.15-.35-.15-.26,.05-.35,.15-.15,.22-.15,.35v.78c0,.13,.06,.26,.15,.35s.23,.15,.35,.15,.26-.05,.35-.15,.15-.22,.15-.35h0Z"/>
  <path class="cls-1" d="M30.53,7.88c-.1-.46-.27-.9-.49-1.31-.06-.11-.18-.2-.3-.23s-.28-.02-.39,.05c-.23,.15-.31,.44-.18,.68,.07,.13,.14,.27,.2,.41l-.05-.12c.11,.25,.19,.51,.24,.78,.02,.12,.13,.24,.23,.3,.11,.06,.27,.09,.39,.05s.24-.11,.3-.23c.07-.12,.08-.25,.05-.39h0Z"/>
  <path class="cls-1" d="M24.52,12.29s-.18-.08-.04-.01c-.04-.02-.08-.03-.12-.05-.08-.04-.15-.07-.23-.12-.16-.09-.31-.18-.45-.29-.01-.01-.07-.05,0,0,.07,.05,0,0-.02-.01-.03-.03-.07-.05-.1-.08-.07-.06-.13-.12-.2-.18-.06-.06-.12-.12-.18-.18-.03-.04-.06-.07-.09-.11-.03-.03-.12-.16-.03-.03-.08-.11-.16-.19-.3-.23-.12-.03-.28-.02-.39,.05s-.2,.17-.23,.3-.03,.28,.05,.39c.28,.36,.58,.67,.95,.94,.33,.25,.7,.44,1.09,.59,.11,.04,.28,0,.39-.05s.2-.18,.23-.3c.03-.13,.02-.27-.05-.39s-.17-.18-.3-.23h0Z"/>
  <path class="cls-1" d="M38.36,13.62c.53-.09,1.05-.21,1.56-.37,.25-.08,.43-.35,.35-.62s-.35-.43-.62-.35c-.51,.16-1.03,.29-1.56,.37-.12,.02-.24,.13-.3,.23-.06,.11-.09,.27-.05,.39s.11,.24,.23,.3c.13,.07,.25,.07,.39,.05h0Z"/>
  <path class="cls-1" d="M35.01,20.25l-.74-1.68c-.05-.11-.19-.2-.3-.23-.12-.03-.28-.02-.39,.05s-.2,.17-.23,.3c-.03,.14,0,.26,.05,.39l.74,1.68c.05,.11,.19,.2,.3,.23,.12,.03,.28,.02,.39-.05s.2-.17,.23-.3c.03-.14,0-.26-.05-.39h0Z"/>
  <path class="cls-1" d="M41.98,21.93c.09-.09,.19-.17,.29-.25l-.1,.08c.24-.18,.5-.33,.77-.45l-.12,.05c.09-.04,.18-.07,.27-.1,.12-.04,.23-.12,.3-.23,.06-.11,.09-.27,.05-.39-.08-.25-.35-.44-.62-.35-.58,.19-1.11,.5-1.55,.92-.19,.18-.2,.53,0,.71s.5,.19,.71,0h0Z"/>
  <path class="cls-1" d="M41.03,26.14c.12,.08,.23,.16,.34,.25l-.1-.08c.22,.17,.43,.36,.63,.56,.09,.09,.23,.15,.35,.15s.27-.05,.35-.15,.15-.22,.15-.35-.05-.26-.15-.35c-.32-.33-.68-.63-1.07-.88-.1-.07-.27-.08-.39-.05s-.24,.12-.3,.23c-.06,.12-.09,.26-.05,.39s.12,.22,.23,.3h0Z"/>
  <path class="cls-1" d="M35.91,26.1c-.16,.14-.3,.31-.42,.48s-.21,.37-.29,.57c-.02,.07-.02,.13,0,.2,0,.07,.02,.13,.06,.19,.06,.1,.18,.2,.3,.23,.13,.03,.27,.02,.39-.05l.1-.08c.06-.06,.1-.14,.13-.22,0-.03,.02-.05,.03-.08l-.05,.12c.07-.16,.16-.32,.27-.46l-.08,.1c.08-.11,.18-.21,.28-.3,.09-.08,.15-.23,.15-.35s-.05-.27-.15-.35-.22-.15-.35-.15l-.13,.02c-.08,.02-.16,.07-.22,.13h0Z"/>
  <path class="cls-1" d="M39.28,30.25c.01,.1,.02,.2,.05,.3s.07,.19,.11,.28c.03,.05,.06,.11,.09,.15,.06,.08,.12,.17,.19,.24,.09,.09,.23,.15,.35,.15,.07,0,.13-.01,.19-.04,.06-.02,.12-.05,.16-.1,.09-.1,.15-.22,.15-.35s-.05-.26-.15-.35c-.03-.03-.06-.06-.08-.09l.08,.1c-.06-.07-.1-.15-.14-.24l.05,.12c-.04-.09-.06-.18-.08-.28l.02,.13s0-.01,0-.02c0-.07-.01-.13-.04-.19-.02-.06-.05-.12-.1-.16-.05-.05-.1-.08-.16-.1-.06-.03-.12-.05-.19-.04-.13,0-.26,.05-.35,.15l-.08,.1c-.05,.08-.07,.16-.07,.25h0Z"/>
  <path class="cls-1" d="M35.29,30.96c-.06,.75,.02,1.52,.23,2.24,.07,.25,.36,.43,.62,.35s.43-.35,.35-.62c-.05-.16-.09-.33-.12-.5-.02-.09-.03-.18-.05-.27-.02-.13,.01,.11,0-.02,0-.05-.01-.09-.01-.14-.03-.35-.03-.7,0-1.05,.02-.26-.25-.51-.5-.5-.29,.01-.48,.22-.5,.5h0Z"/>
  <path class="cls-1" d="M41.55,37.1c-.48,.1-.95,.25-1.41,.44-.13,.05-.23,.11-.3,.23-.06,.11-.09,.27-.05,.39s.11,.24,.23,.3,.26,.1,.39,.05c.45-.19,.93-.34,1.41-.44,.26-.05,.43-.37,.35-.62-.09-.27-.34-.41-.62-.35h0Z"/>
  <path class="cls-1" d="M33.44,39.68l-.67,.96c-.07,.1-.08,.27-.05,.39s.12,.24,.23,.3c.12,.06,.26,.09,.39,.05s.22-.12,.3-.23l.67-.96c.07-.1,.08-.27,.05-.39s-.12-.24-.23-.3c-.12-.06-.26-.09-.39-.05s-.22,.12-.3,.23h0Z"/>
  <path class="cls-1" d="M26.79,43.65c-.55,.06-1.09,.16-1.61,.32-.25,.07-.43,.36-.35,.62s.35,.43,.62,.35c.42-.12,.85-.21,1.28-.27l-.13,.02c.07,0,.13-.02,.2-.02,.14-.02,.25-.05,.35-.15,.09-.09,.15-.23,.15-.35s-.05-.26-.15-.35c-.09-.08-.22-.16-.35-.15h0Z"/>
  <path class="cls-1" d="M22.49,41.48c0-.08,0-.17,0-.25,0-.04,0-.08,0-.13,0-.02,0-.04,0-.06,0-.07,0,.02,0,.04,.04-.17,.07-.34,.13-.51,0-.02,.01-.04,.02-.06,0-.01,.03-.08,0-.01s0,0,0-.01c0-.02,.02-.04,.03-.06,.04-.08,.08-.15,.12-.22,.02-.04,.05-.07,.07-.11,.01-.02,.02-.03,.04-.05,0-.01,.05-.07,0-.01s0,0,.01-.01c.01-.02,.03-.03,.04-.05,.03-.04,.06-.07,.1-.11,.18-.19,.2-.52,0-.71s-.51-.2-.71,0c-.59,.61-.92,1.47-.87,2.33,.02,.26,.22,.51,.5,.5,.26-.01,.52-.22,.5-.5h0Z"/>
  <path class="cls-1" d="M16.42,40.63s-.04,0-.07,.01c.07,0,.09-.01,.05,0-.04,0-.08,0-.12,.01-.07,0-.14,0-.2,.01-.15,0-.31,0-.46-.02-.02,0-.1,0-.12-.01h.07s-.04,0-.07,0c-.07-.01-.14-.03-.22-.04-.15-.03-.3-.08-.44-.13-.25-.09-.56,.1-.62,.35-.06,.28,.09,.52,.35,.62,.68,.24,1.4,.29,2.11,.18,.12-.02,.24-.13,.3-.23,.06-.11,.09-.27,.05-.39s-.11-.24-.23-.3c-.13-.07-.24-.07-.39-.05h0Z"/>
  <path class="cls-1" d="M14.56,36.26c-.05-.56-.07-1.13-.03-1.7,.02-.26-.24-.51-.5-.5-.28,.01-.48,.22-.5,.5-.03,.57-.02,1.13,.03,1.7,.01,.14,.05,.25,.15,.35,.09,.09,.23,.15,.35,.15,.25-.01,.53-.22,.5-.5h0Z"/>
  <path class="cls-1" d="M7.08,32.37l-.12-1.13c-.01-.14-.05-.25-.15-.35-.09-.09-.23-.15-.35-.15s-.26,.05-.35,.15c-.08,.09-.16,.22-.15,.35l.12,1.13c.01,.14,.05,.25,.15,.35,.09,.09,.23,.15,.35,.15s.26-.05,.35-.15c.08-.09,.16-.22,.15-.35h0Z"/>
  <path class="cls-1" d="M14.42,29.99l.62-.88c.04-.06,.06-.12,.06-.19,.01-.07,.01-.13,0-.2-.03-.12-.12-.24-.23-.3-.12-.06-.26-.09-.39-.05l-.12,.05c-.08,.04-.13,.1-.18,.18l-.62,.88c-.04,.06-.06,.12-.06,.19-.01,.07-.01,.13,0,.2,.03,.12,.12,.24,.23,.3,.12,.06,.26,.09,.39,.05l.12-.05c.08-.04,.13-.1,.18-.18h0Z"/>
  <path class="cls-1" d="M13.72,23.51l-.91-.25c-.13-.03-.27-.02-.39,.05-.1,.06-.2,.18-.23,.3-.03,.13-.02,.27,.05,.39s.17,.19,.3,.23l.91,.25c.13,.03,.27,.02,.39-.05,.1-.06,.2-.18,.23-.3,.03-.13,.02-.27-.05-.39s-.17-.19-.3-.23h0Z"/>
  <path class="cls-1" d="M28.39,37.04l-.21-1.41c-.02-.12-.13-.24-.23-.3-.11-.06-.27-.09-.39-.05s-.24,.11-.3,.23l-.05,.12c-.02,.09-.02,.18,0,.27l.21,1.41c.02,.12,.13,.24,.23,.3,.11,.06,.27,.09,.39,.05s.24-.11,.3-.23l.05-.12c.02-.09,.02-.18,0-.27h0Z"/>
  <path class="cls-1" d="M33.08,36.04v-1.27c0-.26-.23-.51-.5-.5s-.5,.22-.5,.5v1.27c0,.26,.23,.51,.5,.5s.5-.22,.5-.5h0Z"/>
  <path class="cls-2" d="M31.09,43.71l-.49-.85c-.06-.11-.18-.2-.3-.23s-.28-.02-.39,.05-.2,.17-.23,.3-.02,.27,.05,.39l.49,.85c.06,.11,.18,.2,.3,.23s.28,.02,.39-.05,.2-.17,.23-.3,.02-.27-.05-.39h0Z"/>
  <path class="cls-2" d="M21.5,43.93c-.31,.03-.63,.04-.94,.02-.15,0-.31-.01-.46-.04,.13,.03,.01,0-.01,0-.04,0-.07-.01-.11-.02-.08-.01-.17-.03-.25-.05-.26-.05-.55,.08-.62,.35-.06,.25,.08,.56,.35,.62,.67,.14,1.36,.19,2.04,.13,.14-.01,.25-.05,.35-.15,.09-.09,.15-.23,.15-.35-.01-.25-.22-.53-.5-.5h0Z"/>
  <path class="cls-2" d="M20.01,37.45l-.49,.42s-.08,.1-.1,.16c-.03,.06-.05,.12-.04,.19,0,.07,.01,.13,.04,.19,.02,.06,.05,.12,.1,.16,.1,.09,.22,.15,.35,.15l.13-.02c.08-.02,.16-.07,.22-.13l.49-.42s.08-.1,.1-.16c.03-.06,.05-.12,.04-.19,0-.07-.01-.13-.04-.19-.02-.06-.05-.12-.1-.16-.1-.09-.22-.15-.35-.15l-.13,.02c-.08,.02-.16,.07-.22,.13h0Z"/>
  <path class="cls-2" d="M13.1,38.15h-.92c-.13,0-.26,.06-.35,.15s-.15,.23-.15,.35,.05,.26,.15,.35,.22,.15,.35,.15h.92c.13,0,.26-.06,.35-.15s.15-.23,.15-.35-.05-.26-.15-.35-.22-.15-.35-.15h0Z"/>
  <path class="cls-2" d="M8.31,36.19s-.01,0-.02,0l.13-.02c-.07,0-.13,0-.2,0l.13,.02c-.07,0-.13-.03-.2-.05l.12,.05c-.05-.02-.11-.05-.15-.09-.06-.04-.12-.06-.19-.06-.07-.01-.13-.01-.2,0-.07,.02-.12,.05-.17,.09-.05,.04-.1,.08-.13,.14-.06,.12-.09,.26-.05,.39l.05,.12c.04,.08,.1,.13,.18,.18,.04,.03,.09,.06,.13,.08,.08,.04,.17,.08,.26,.1,.02,0,.05,.01,.07,.01,.07,0,.13,.02,.2,.02,.09,0,.19-.01,.28-.03,.07-.02,.12-.05,.17-.09,.05-.04,.1-.08,.13-.14,.04-.06,.06-.12,.06-.19,.01-.07,.01-.13,0-.2-.04-.12-.11-.24-.23-.3l-.12-.05c-.09-.02-.18-.02-.27,0h0Z"/>
  <path class="cls-2" d="M17.2,32.09c0-.19-.02-.37-.05-.56-.02-.14-.07-.29-.12-.42-.02-.07-.05-.12-.09-.17-.04-.05-.08-.1-.14-.13-.11-.06-.27-.09-.39-.05s-.24,.11-.3,.23-.1,.26-.05,.39c.06,.16,.11,.33,.13,.5l-.02-.13c.02,.11,.02,.23,.02,.34,0,.13,.06,.26,.15,.35s.23,.15,.35,.15,.26-.05,.35-.15,.14-.22,.15-.35h0Z"/>
  <path class="cls-2" d="M7.03,27.58l-.49-.42s-.1-.08-.16-.1c-.06-.03-.12-.05-.19-.04-.07,0-.13,.01-.19,.04-.06,.02-.12,.05-.16,.1-.09,.1-.15,.22-.15,.35l.02,.13c.02,.08,.07,.16,.13,.22l.49,.42s.1,.08,.16,.1c.06,.03,.12,.05,.19,.04,.07,0,.13-.01,.19-.04,.06-.02,.12-.05,.16-.1,.09-.1,.15-.22,.15-.35l-.02-.13c-.02-.08-.07-.16-.13-.22h0Z"/>
  <path class="cls-2" d="M8.91,17.68c-.2-.1-.39-.22-.57-.36l.1,.08c-.22-.17-.41-.37-.58-.58l.08,.1v-.02c-.04-.06-.09-.11-.14-.14-.05-.04-.1-.07-.17-.09-.12-.03-.28-.02-.39,.05s-.2,.17-.23,.3-.03,.28,.05,.39c.18,.24,.37,.46,.61,.65s.47,.36,.74,.49c.12,.06,.25,.09,.39,.05,.12-.03,.24-.12,.3-.23,.06-.12,.09-.26,.05-.39-.04-.12-.11-.24-.23-.3h0Z"/>
  <path class="cls-2" d="M12.57,10.08c-.02-.07-.03-.14-.04-.2l.02,.13c-.02-.19-.02-.39,0-.58l-.02,.13c.02-.12,.04-.23,.07-.35,.04-.12,.01-.28-.05-.39-.06-.1-.18-.2-.3-.23-.27-.06-.54,.08-.62,.35-.13,.45-.14,.94-.04,1.4,.06,.26,.37,.43,.62,.35,.27-.09,.41-.34,.35-.62h0Z"/>
  <path class="cls-2" d="M18.93,9.3c.19-.13,.39-.25,.61-.34l-.12,.05c.1-.04,.2-.08,.3-.11,.12-.04,.23-.12,.3-.23s.09-.27,.05-.39-.11-.24-.23-.3-.26-.09-.39-.05c-.36,.11-.72,.28-1.03,.5-.11,.08-.19,.17-.23,.3-.03,.12-.02,.28,.05,.39s.17,.2,.3,.23,.28,.03,.39-.05h0Z"/>
  <path class="cls-2" d="M21.15,4.28v-.49c0-.07-.01-.13-.04-.19-.02-.06-.05-.12-.1-.16-.05-.05-.1-.08-.16-.1-.06-.03-.12-.05-.19-.04l-.13,.02c-.08,.02-.16,.07-.22,.13-.09,.1-.15,.22-.15,.35v.49c0,.07,.01,.13,.04,.19,.02,.06,.05,.12,.1,.16,.05,.05,.1,.08,.16,.1,.06,.03,.12,.05,.19,.04l.13-.02c.08-.02,.16-.07,.22-.13,.09-.1,.15-.22,.15-.35h0Z"/>
  <path class="cls-2" d="M25.56,5.55l.78,.43c.12,.06,.26,.09,.39,.05,.12-.03,.24-.12,.3-.23,.06-.12,.09-.26,.05-.39s-.11-.24-.23-.3l-.78-.43c-.12-.06-.26-.09-.39-.05-.12,.03-.24,.12-.3,.23-.06,.12-.09,.26-.05,.39s.11,.24,.23,.3h0Z"/>
  <path class="cls-2" d="M30.26,5.61l.78,.07c.07,0,.13-.01,.19-.04,.06-.02,.12-.05,.16-.1,.09-.09,.15-.23,.15-.35s-.05-.26-.15-.35l-.1-.08c-.08-.05-.16-.07-.25-.07l-.78-.07c-.07,0-.13,.01-.19,.04-.06,.02-.12,.05-.16,.1-.09,.09-.15,.23-.15,.35s.05,.26,.15,.35l.1,.08c.08,.05,.16,.07,.25,.07h0Z"/>
  <path class="cls-2" d="M34.32,12.96l.99-.71c.11-.08,.19-.17,.23-.3,.03-.12,.02-.28-.05-.39s-.17-.2-.3-.23-.28-.03-.39,.05l-.99,.71c-.11,.08-.19,.17-.23,.3-.03,.12-.02,.28,.05,.39s.17,.2,.3,.23,.28,.03,.39-.05h0Z"/>
  <path class="cls-2" d="M28.51,10.3c-.06-.13-.14-.26-.23-.38-.11-.15-.23-.29-.36-.42-.09-.09-.22-.15-.35-.15-.07,0-.13,.01-.19,.04-.06,.02-.12,.05-.16,.1-.09,.1-.15,.22-.15,.35s.05,.26,.15,.35c.09,.09,.18,.18,.25,.28l-.08-.1c.1,.13,.18,.27,.26,.41,.03,.06,.07,.11,.13,.14,.05,.04,.1,.07,.17,.09,.07,.02,.13,.02,.2,0,.07,0,.13-.02,.19-.06,.11-.07,.2-.17,.23-.3l.02-.13c0-.09-.02-.17-.07-.25h0Z"/>
  <path class="cls-2" d="M31.28,17.04c.02-.16,.06-.31,.13-.46l-.05,.12c.06-.15,.14-.28,.24-.41l-.08,.1c.07-.09,.15-.17,.23-.24,.09-.08,.15-.23,.15-.35s-.05-.27-.15-.35-.22-.15-.35-.15-.25,.05-.35,.15c-.38,.34-.66,.83-.72,1.34-.02,.07-.02,.13,0,.2,0,.07,.02,.13,.06,.19,.06,.1,.18,.2,.3,.23,.13,.03,.27,.02,.39-.05,.1-.07,.21-.17,.23-.3h0Z"/>
  <path class="cls-2" d="M38.16,21.09l1.2-.29c.25-.06,.43-.36,.35-.62-.09-.26-.34-.42-.62-.35l-1.2,.29c-.25,.06-.43,.36-.35,.62,.09,.26,.34,.42,.62,.35h0Z"/>
  <path class="cls-2" d="M39.57,17.55l.49,.42s.1,.08,.16,.1c.06,.03,.12,.05,.19,.04,.07,0,.13-.01,.19-.04,.06-.02,.12-.05,.16-.1,.09-.1,.15-.22,.15-.35l-.02-.13c-.02-.08-.07-.16-.13-.22l-.49-.42s-.1-.08-.16-.1c-.06-.03-.12-.05-.19-.04-.07,0-.13,.01-.19,.04-.06,.02-.12,.05-.16,.1-.09,.1-.15,.22-.15,.35l.02,.13c.02,.08,.07,.16,.13,.22h0Z"/>
  <path class="cls-2" d="M43.38,19.45v.35c0,.07,.01,.13,.04,.19,.02,.06,.05,.12,.1,.16,.05,.05,.1,.08,.16,.1,.06,.03,.12,.05,.19,.04l.13-.02c.08-.02,.16-.07,.22-.13l.08-.1c.05-.08,.07-.16,.07-.25v-.35c0-.07-.01-.13-.04-.19-.02-.06-.05-.12-.1-.16-.05-.05-.1-.08-.16-.1-.06-.03-.12-.05-.19-.04l-.13,.02c-.08,.02-.16,.07-.22,.13l-.08,.1c-.05,.08-.07,.16-.07,.25h0Z"/>
  <path class="cls-2" d="M43.17,24.4v.92c0,.13,.06,.26,.15,.35s.23,.15,.35,.15,.26-.05,.35-.15,.15-.22,.15-.35v-.92c0-.13-.06-.26-.15-.35s-.23-.15-.35-.15-.26,.05-.35,.15-.15,.22-.15,.35h0Z"/>
  <path class="cls-2" d="M41.47,32.44c-.15,.18-.29,.37-.4,.57s-.21,.42-.29,.64c-.04,.12,0,.28,.05,.39s.18,.2,.3,.23c.13,.03,.27,.02,.39-.05s.18-.17,.23-.3c.02-.05,.04-.11,.06-.16l-.05,.12c.12-.27,.27-.53,.45-.76l-.08,.1s.04-.05,.05-.07c.05-.05,.08-.1,.1-.16,.03-.06,.05-.12,.04-.19,0-.12-.05-.27-.15-.35s-.22-.15-.35-.15c-.12,0-.27,.05-.35,.15h0Z"/>
  <path class="cls-2" d="M37.6,35.89s0,.03,.01,.05l-.02-.13s0,.08,0,.12l.02-.13s-.02,.08-.03,.11l.05-.12s-.03,.05-.04,.08c-.04,.06-.06,.12-.06,.19-.01,.07-.01,.13,0,.2,.02,.07,.05,.12,.09,.17,.04,.05,.08,.1,.14,.13l.12,.05c.09,.02,.18,.02,.27,0l.12-.05c.08-.04,.13-.1,.18-.18,.04-.06,.07-.13,.09-.2,.01-.03,.02-.06,.03-.09,0-.06,.02-.12,.02-.17,0-.02,0-.03,0-.05,0-.06-.01-.12-.02-.17,0-.02,0-.03-.01-.05-.02-.07-.05-.12-.09-.17-.04-.05-.08-.1-.14-.13-.06-.04-.12-.06-.19-.06-.07-.01-.13-.01-.2,0l-.12,.05c-.08,.04-.13,.1-.18,.18l-.05,.12c-.02,.09-.02,.18,0,.27h0Z"/>
  <path class="cls-2" d="M36.03,39.65l-.2,.99c-.03,.13-.02,.27,.05,.39,.06,.1,.18,.2,.3,.23,.13,.03,.27,.02,.39-.05,.11-.07,.2-.17,.23-.3l.2-.99c.03-.13,.02-.27-.05-.39-.06-.1-.18-.2-.3-.23-.13-.03-.27-.02-.39,.05-.11,.07-.2,.17-.23,.3h0Z"/>
  <path class="cls-2" d="M29.89,38.96c-.23-.03-.45-.1-.66-.19l.12,.05c-.11-.05-.22-.1-.33-.17s-.26-.08-.39-.05c-.12,.03-.24,.12-.3,.23-.06,.12-.09,.26-.05,.39s.12,.23,.23,.3c.34,.2,.72,.34,1.11,.4,.07,.02,.13,.02,.2,0,.07,0,.13-.02,.19-.06,.1-.06,.2-.18,.23-.3,.03-.13,.02-.27-.05-.39-.07-.1-.17-.21-.3-.23h0Z"/>
  <path class="cls-2" d="M24.38,34.02c-.07-.02-.14-.04-.21-.07l.12,.05c-.1-.04-.2-.1-.28-.17l.1,.08c-.05-.04-.1-.08-.14-.13-.05-.05-.1-.08-.16-.1-.06-.03-.12-.05-.19-.04-.07,0-.13,.01-.19,.04-.06,.02-.12,.05-.16,.1-.09,.1-.15,.22-.15,.35s.05,.25,.15,.35c.04,.05,.09,.09,.14,.13,.08,.06,.16,.13,.25,.18s.18,.09,.28,.13c.06,.02,.12,.04,.19,.06,.13,.03,.27,.02,.39-.05,.06-.03,.11-.07,.14-.13,.04-.05,.07-.1,.09-.17,.03-.13,.02-.27-.05-.39-.07-.11-.17-.2-.3-.23h0Z"/>
  <path class="cls-2" d="M32.38,32.16v-1.13c0-.13-.06-.26-.15-.35s-.23-.15-.35-.15c-.27,.01-.5,.22-.5,.5v1.13c0,.13,.06,.26,.15,.35s.23,.15,.35,.15c.27-.01,.5-.22,.5-.5h0Z"/>
  <path class="cls-2" d="M16.28,19.1l-.71-.63c-.1-.09-.22-.15-.35-.15-.12,0-.27,.05-.35,.15s-.15,.22-.15,.35,.05,.27,.15,.35l.71,.63c.1,.09,.22,.15,.35,.15,.12,0,.27-.05,.35-.15s.15-.22,.15-.35-.05-.27-.15-.35h0Z"/>
  <path class="cls-3" d="M26.71,40.78l-.07-.28c-.02-.07-.05-.12-.09-.17-.04-.05-.08-.1-.14-.13-.06-.04-.12-.06-.19-.06-.07-.01-.13-.01-.2,0l-.12,.05c-.08,.04-.13,.1-.18,.18l-.05,.12c-.02,.09-.02,.18,0,.27l.07,.28c.02,.07,.05,.12,.09,.17,.04,.05,.08,.1,.14,.13,.06,.04,.12,.06,.19,.06,.07,.01,.13,.01,.2,0l.12-.05c.08-.04,.13-.1,.18-.18l.05-.12c.02-.09,.02-.18,0-.27h0Z"/>
  <path class="cls-3" d="M19.45,35.51l-.5-.91c-.06-.11-.18-.2-.3-.23s-.28-.02-.39,.05-.2,.17-.23,.3-.02,.26,.05,.39l.5,.91c.06,.11,.18,.2,.3,.23s.28,.02,.39-.05,.2-.17,.23-.3,.02-.26-.05-.39h0Z"/>
  <path class="cls-3" d="M15.36,38.79h-.56c-.07,0-.13,.01-.19,.04-.06,.02-.12,.05-.16,.1-.05,.05-.08,.1-.1,.16-.03,.06-.05,.12-.04,.19,0,.13,.05,.26,.15,.35s.22,.15,.35,.15h.56c.07,0,.13-.01,.19-.04,.06-.02,.12-.05,.16-.1,.05-.05,.08-.1,.1-.16,.03-.06,.05-.12,.04-.19,0-.13-.05-.26-.15-.35s-.22-.15-.35-.15h0Z"/>
  <path class="cls-3" d="M18.04,42.43l-.43,.63c-.04,.06-.06,.12-.06,.19-.01,.07-.01,.13,0,.2,.02,.07,.05,.12,.09,.17,.04,.05,.08,.1,.14,.13,.12,.06,.26,.09,.39,.05l.12-.05c.08-.04,.13-.1,.18-.18l.43-.63c.04-.06,.06-.12,.06-.19,.01-.07,.01-.13,0-.2-.02-.07-.05-.12-.09-.17-.04-.05-.08-.1-.14-.13-.12-.06-.26-.09-.39-.05l-.12,.05c-.08,.04-.13,.1-.18,.18h0Z"/>
  <path class="cls-3" d="M13.12,35.48l-.08-1.55c-.01-.26-.22-.51-.5-.5-.26,.01-.52,.22-.5,.5l.08,1.55c.01,.26,.22,.51,.5,.5,.26-.01,.52-.22,.5-.5h0Z"/>
  <path class="cls-3" d="M10.35,30.83s-.03,0-.05,0l.13,.02c-.26-.04-.51-.11-.76-.21l.12,.05c-.24-.1-.47-.23-.68-.39l.1,.08s-.04-.03-.06-.05c-.11-.09-.21-.15-.35-.15-.12,0-.27,.05-.35,.15s-.15,.22-.15,.35c0,.12,.05,.27,.15,.35,.26,.21,.53,.39,.84,.52,.17,.07,.33,.13,.5,.18,.18,.05,.37,.08,.56,.1,.12,.01,.27-.07,.35-.15,.09-.09,.15-.23,.15-.35s-.05-.26-.15-.35c-.1-.1-.21-.13-.35-.15h0Z"/>
  <path class="cls-3" d="M12.05,28v-1.48c0-.26-.23-.51-.5-.5s-.5,.22-.5,.5v1.48c0,.26,.23,.51,.5,.5s.5-.22,.5-.5h0Z"/>
  <path class="cls-3" d="M9.37,21.67c-.2-.26-.36-.55-.49-.85l.05,.12c-.06-.14-.11-.28-.15-.42-.04-.12-.12-.23-.23-.3s-.27-.09-.39-.05c-.25,.08-.43,.35-.35,.62,.15,.5,.38,.97,.69,1.39,.08,.11,.16,.19,.3,.23,.12,.03,.28,.02,.39-.05s.2-.17,.23-.3,.03-.28-.05-.39h0Z"/>
  <path class="cls-3" d="M5.26,23.7c-.06-.02-.11-.04-.17-.06l.12,.05c-.25-.11-.49-.25-.71-.41l.1,.08c-.17-.13-.33-.28-.47-.44-.08-.09-.23-.15-.35-.15s-.27,.05-.35,.15-.15,.22-.15,.35,.06,.25,.15,.35c.42,.48,.97,.83,1.56,1.05,.12,.04,.28,.01,.39-.05s.2-.18,.23-.3c.03-.13,.02-.27-.05-.39s-.17-.18-.3-.23h0Z"/>
  <path class="cls-3" d="M11.05,15.01c.16-.01,.33,0,.49,.02l-.13-.02c.21,.03,.41,.08,.6,.17l-.12-.05c.16,.07,.31,.15,.45,.25,.1,.07,.27,.08,.39,.05s.24-.12,.3-.23c.06-.12,.09-.26,.05-.39s-.12-.22-.23-.3c-.51-.36-1.17-.55-1.8-.5-.13,0-.26,.05-.35,.15-.09,.09-.15,.23-.15,.35,.01,.25,.22,.52,.5,.5h0Z"/>
  <path class="cls-3" d="M11.08,11.29l-.38-.84c-.03-.06-.07-.11-.13-.14-.05-.04-.1-.07-.17-.09-.12-.03-.28-.02-.39,.05s-.2,.17-.23,.3l-.02,.13c0,.09,.02,.17,.07,.25l.38,.84c.03,.06,.07,.11,.13,.14,.05,.04,.1,.07,.17,.09,.12,.03,.28,.02,.39-.05s.2-.17,.23-.3l.02-.13c0-.09-.02-.17-.07-.25h0Z"/>
  <path class="cls-3" d="M17.21,6.52c.07,.01,.15,.03,.22,.06l-.12-.05c.08,.03,.16,.08,.23,.13l-.1-.08s.08,.07,.11,.1c.05,.05,.1,.08,.16,.1,.06,.03,.12,.05,.19,.04,.07,0,.13-.01,.19-.04,.06-.02,.12-.05,.16-.1,.09-.1,.15-.22,.15-.35l-.02-.13c-.02-.08-.07-.16-.13-.22-.07-.07-.14-.12-.22-.18-.04-.03-.09-.06-.14-.09-.08-.04-.17-.08-.26-.11-.05-.02-.11-.03-.16-.04-.07-.02-.13-.02-.2,0-.07,0-.13,.02-.19,.06-.06,.03-.11,.07-.14,.13-.04,.05-.07,.1-.09,.17l-.02,.13c0,.09,.02,.17,.07,.25l.08,.1c.06,.06,.14,.1,.22,.13h0Z"/>
  <path class="cls-3" d="M19.1,14.45l-.25,1.07c-.03,.13-.02,.27,.05,.39,.06,.1,.18,.2,.3,.23,.13,.03,.27,.02,.39-.05,.11-.07,.2-.17,.23-.3l.25-1.07c.03-.13,.02-.27-.05-.39-.06-.1-.18-.2-.3-.23-.13-.03-.27-.02-.39,.05-.11,.07-.2,.17-.23,.3h0Z"/>
  <path class="cls-3" d="M24.03,9.97l.3,.63c.03,.06,.07,.11,.13,.14,.05,.04,.1,.07,.17,.09,.07,.02,.13,.02,.2,0,.07,0,.13-.02,.19-.06,.11-.07,.2-.17,.23-.3l.02-.13c0-.09-.02-.17-.07-.25l-.3-.63c-.03-.06-.07-.11-.13-.14-.05-.04-.1-.07-.17-.09-.07-.02-.13-.02-.2,0-.07,0-.13,.02-.19,.06-.11,.07-.2,.17-.23,.3l-.02,.13c0,.09,.02,.17,.07,.25h0Z"/>
  <path class="cls-3" d="M27.92,4.77c0,.09,0,.17-.02,.26l.02-.13c-.02,.16-.07,.32-.13,.47l.05-.12c-.04,.09-.08,.18-.14,.26-.07,.11-.08,.26-.05,.39s.12,.24,.23,.3c.25,.13,.54,.06,.68-.18,.23-.37,.35-.81,.35-1.24,0-.13-.06-.26-.15-.35-.09-.09-.23-.15-.35-.15s-.26,.05-.35,.15-.15,.22-.15,.35h0Z"/>
  <path class="cls-3" d="M31.1,11.06h1.48c.26,0,.51-.23,.5-.5s-.22-.5-.5-.5h-1.48c-.26,0-.51,.23-.5,.5s.22,.5,.5,.5h0Z"/>
  <path class="cls-3" d="M33.01,8.58c-.01-.34,0-.68,.05-1.01l-.02,.13c.03-.2,.07-.41,.11-.6,.06-.25-.08-.55-.35-.62s-.55,.08-.62,.35c-.14,.57-.2,1.16-.18,1.75,0,.26,.22,.51,.5,.5s.51-.22,.5-.5h0Z"/>
  <path class="cls-3" d="M37.24,11.27h1.48c.26,0,.51-.23,.5-.5s-.22-.5-.5-.5h-1.48c-.26,0-.51,.23-.5,.5s.22,.5,.5,.5h0Z"/>
  <path class="cls-3" d="M36.79,16.28l-.17,1.63c-.01,.12,.06,.27,.15,.35,.09,.09,.23,.15,.35,.15s.26-.05,.35-.15c.09-.1,.13-.21,.15-.35l.17-1.63c.01-.12-.06-.27-.15-.35-.09-.09-.23-.15-.35-.15s-.26,.05-.35,.15c-.09,.1-.13,.21-.15,.35h0Z"/>
  <path class="cls-3" d="M28.98,14.15h-1.91c-.26,0-.51,.23-.5,.5s.22,.5,.5,.5h1.91c.26,0,.51-.23,.5-.5s-.22-.5-.5-.5h0Z"/>
  <path class="cls-3" d="M33.44,23.47s.06,.02,.09,.03l-.12-.05c.13,.05,.25,.12,.35,.21l-.1-.08c.07,.05,.13,.11,.19,.18,.05,.05,.1,.08,.16,.1,.06,.03,.12,.05,.19,.04,.07,0,.13-.01,.19-.04,.06-.02,.12-.05,.16-.1,.09-.1,.15-.22,.15-.35l-.02-.13c-.02-.08-.07-.16-.13-.22-.12-.13-.25-.23-.39-.33s-.3-.16-.46-.22c-.07-.02-.13-.02-.2,0-.07,0-.13,.02-.19,.06-.06,.03-.11,.07-.14,.13-.04,.05-.07,.1-.09,.17-.03,.13-.02,.27,.05,.39l.08,.1c.06,.06,.14,.1,.22,.13h0Z"/>
  <path class="cls-3" d="M37.1,22.84v2.12c0,.26,.23,.51,.5,.5s.5-.22,.5-.5v-2.12c0-.26-.23-.51-.5-.5s-.5,.22-.5,.5h0Z"/>
  <path class="cls-3" d="M40.88,24.33h.02s-.08,.03-.12,.04c.31-.13,.63-.22,.97-.26l-.13,.02s.1-.01,.15-.02c.14-.01,.25-.05,.35-.15,.09-.09,.15-.23,.15-.35s-.05-.26-.15-.35c-.09-.08-.22-.16-.35-.15-.24,.02-.48,.06-.71,.12s-.45,.14-.67,.24c-.11,.05-.2,.19-.23,.3-.03,.12-.02,.28,.05,.39s.17,.2,.3,.23l.13,.02c.09,0,.17-.02,.25-.07h0Z"/>
  <path class="cls-3" d="M43.16,16.74l-.56-1.2c-.05-.11-.19-.2-.3-.23-.12-.03-.28-.02-.39,.05s-.2,.17-.23,.3l-.02,.13c0,.09,.02,.17,.07,.25l.56,1.2c.05,.11,.19,.2,.3,.23,.12,.03,.28,.02,.39-.05s.2-.17,.23-.3l.02-.13c0-.09-.02-.17-.07-.25h0Z"/>
  <path class="cls-3" d="M41.06,29.19c.08,.02,.16,.04,.23,.07l-.12-.05c.11,.05,.21,.11,.3,.18l-.1-.08c.09,.07,.17,.15,.24,.24,.05,.05,.1,.08,.16,.1,.06,.03,.12,.05,.19,.04,.12,0,.27-.05,.35-.15s.15-.22,.15-.35l-.02-.13c-.02-.08-.07-.16-.13-.22-.12-.16-.28-.29-.45-.39-.1-.06-.21-.11-.32-.16-.08-.03-.15-.06-.23-.07-.13-.03-.27-.02-.39,.05-.1,.06-.2,.18-.23,.3-.03,.13-.02,.27,.05,.39,.07,.11,.17,.2,.3,.23h0Z"/>
  <path class="cls-3" d="M36.4,28.62h-1.69c-.26,0-.51,.23-.5,.5s.22,.5,.5,.5h1.69c.26,0,.51-.23,.5-.5s-.22-.5-.5-.5h0Z"/>
  <path class="cls-3" d="M30.78,35.05c-.18-.91-.59-1.75-1.18-2.46-.17-.2-.54-.19-.71,0-.2,.22-.18,.49,0,.71,.02,.02,.12,.15,.04,.05,.03,.04,.06,.08,.09,.12,.06,.08,.12,.17,.17,.25,.11,.17,.2,.35,.29,.53,.02,.04,.05,.09,.06,.14-.04-.13,.01,.03,.02,.06,.04,.09,.07,.19,.1,.29,.06,.19,.11,.39,.15,.59,.05,.26,.37,.43,.62,.35,.27-.09,.4-.34,.35-.62h0Z"/>
  <path class="cls-3" d="M25.46,38.23c-.02-.36,0-.73,.04-1.09l-.02,.13c.03-.2,.07-.4,.11-.6,.06-.25-.08-.55-.35-.62s-.55,.08-.62,.35c-.15,.59-.21,1.21-.17,1.82,.02,.26,.22,.51,.5,.5,.26-.01,.52-.22,.5-.5h0Z"/>
  <path class="cls-3" d="M28.78,46.14c-.03-.4-.02-.79,.04-1.19l-.02,.13c0-.05,.01-.1,.02-.15,.02-.14,.02-.26-.05-.39-.06-.1-.18-.2-.3-.23-.13-.03-.27-.02-.39,.05-.1,.07-.21,.17-.23,.3-.08,.49-.11,.98-.08,1.47,0,.13,.05,.26,.15,.35,.09,.09,.23,.15,.35,.15s.26-.05,.35-.15,.16-.22,.15-.35h0Z"/>
  <path class="cls-3" d="M34.98,42.47c-.17,0-.33-.02-.5-.04l.13,.02c-.41-.06-.81-.17-1.2-.32-.11-.05-.29,0-.39,.05s-.2,.18-.23,.3c-.03,.13-.02,.27,.05,.39s.17,.18,.3,.23c.58,.24,1.2,.36,1.83,.38,.26,0,.51-.24,.5-.5-.01-.28-.22-.49-.5-.5h0Z"/>
  <path class="cls-3" d="M37.95,37.66c-.22,0-.44,0-.65-.03l.13,.02c-.26-.04-.51-.1-.76-.19-.12-.04-.28,0-.39,.05s-.2,.18-.23,.3c-.03,.13-.02,.27,.05,.39s.17,.18,.3,.23c.49,.18,1.02,.26,1.54,.24,.26-.01,.51-.22,.5-.5-.01-.26-.22-.51-.5-.5h0Z"/>
  <path class="cls-3" d="M42.68,35.12c-.58,.03-1.16,0-1.73-.07l.13,.02h-.03c-.14-.02-.26-.03-.39,.05-.1,.06-.2,.18-.23,.3-.03,.13-.02,.27,.05,.39,.07,.1,.17,.21,.3,.23,.63,.09,1.26,.13,1.9,.1,.26-.01,.51-.22,.5-.5-.01-.26-.22-.51-.5-.5h0Z"/>
</svg>